<svg width="434" height="431" fill="none" xmlns="http://www.w3.org/2000/svg"><path d="M283.74 133.185c2.6 2.6 2.6 6.809 0 9.394-2.599 2.6-6.809 2.6-9.394 0-2.599-2.599-2.599-6.809 0-9.394a6.634 6.634 0 019.394 0zm-14.623-65.802c-8.936 8.936-8.936 23.44 0 32.377 8.937 8.936 23.441 8.936 32.377 0 8.936-8.937 8.936-23.441 0-32.377-8.936-8.936-23.426-8.951-32.377 0zM434 0c-8.641 14.283-15.317 28.729-39.629 35.346-32.598 8.862-65.522-6.662-98.061-4.756-106.008 6.233-18.759 111.989-62.494 162.548-35.39 40.929-93.512 17.119-118.282 71.77-15.317 33.78-16.75 70.263-36.66 103.053C60.647 397.975 35.922 425.95 0 430.943v-37.99a28.09 28.09 0 001.55.044c11.61.045 21.92-6.558 30.384-13.914 13.5-11.727 25.139-25.892 35.33-40.544 5.14-7.386 9.853-14.682 12.467-23.367 1.181-3.929 5.952-24.253 3.9-29.896-2.04-5.583-8.006-9.157-13.855-7.784-11.92 2.792-10.236 18.375-14.032 27.193-6.086 14.15-18.847 24.77-33.116 30.028-7.65 2.821-15.48 4.948-22.613 8.434V0h360.472c-13.514 4.402-27.665 7.518-41.711 8.582-3.619.265-3.767 5.302-.887 6.203 3.575 2.555 7.622 2.688 11.846 3.722 2.955.724 31.151 6.219 41.239 6.795 12.496.724 27.606-1.197 37.252-9.837 3.485-3.132 6.646-6.942 6.469-11.89-.044-1.212-.281-2.408-.62-3.575H434zM99.346 245.603c-2.718-8.567-11.713-11.595-19.113-6.691-3.19 2.112-6.011 5.421-6.218 9.35a4.875 4.875 0 00-.502 1.166c-2.644 8.774 6.75 14.801 14.548 14.106 8.996-.812 13.958-9.497 11.285-17.931z" fill="#559AAF"/></svg>