<svg width="564" height="518" fill="none" xmlns="http://www.w3.org/2000/svg"><path d="M563.561 0c-6.068 5.303-12.634 10.146-20.158 14.3-17.994 9.916-40.45 9.916-58.444 20.751-52.109 31.357-51.841 87.811-71.482 138.522-30.878 79.713-84.633 65.049-156.554 72.266-55.612 5.571-119.589 33.329-120.048 98.99-.287 42.843 47.744 71.214 10.663 102.666-20.828 17.669-57.851 6.7-81.742 14.645C32.773 473.109 14.53 493.363 0 517.368l563.523-1.148L563.561 0zM439.953 135.554c2.507-5.915 4.039-12.175 6.547-18.109 2.297-5.418 4.824-10.74 7.006-16.215 4.346-10.93 8.921-21.326 16.138-30.706 9.495-12.347 23.719-29.174 40.948-27.356.918.096 1.742 1.187 1.761 2.068.019 6.738-6.337 11.41-10.893 15.468-7.715 6.853-15.295 14.09-22.455 21.517-8.193 8.519-14.989 17.63-19.258 28.715-1.953 5.054-3.484 10.337-5.762 15.257-2.298 4.958-5.724 8.576-9.591 12.405-.996.976-2.278.785-3.12.076-1.053-.478-1.915-1.722-1.321-3.12zM312.936 266.858c3.676-5.207 12.712-7.025 18.282-4.115 1.819.938 3.389 2.546 4.384 4.441 2.853 3.407 2.182 8.538-1.474 11.199-3.848 2.814-10.088 3.886-14.645 2.469-5.934-1.857-10.758-8.04-6.547-13.994zM161.685 354.42c-5.82-12.06-3.197-26.379 4.881-36.698 5.341-6.834 12.348-13.036 18.703-18.952 5.667-5.264 11.697-10.165 18.206-14.376 12.596-8.155 26.762-13.822 41.598-16.215 15.506-2.507 31.3-.861 46.844.211 1.551.115 2.795.708 3.733 1.589 5.494 2.967 4.231 10.069.038 13.783-5.264 4.652-12.615 4.786-18.99 6.93-7.294 2.45-13.956 6.815-20.024 11.505-13.821 10.682-25.02 24.58-36.468 37.655-8.519 9.725-17.65 22.417-30.189 27.222-11.563 4.403-23.164-1.934-28.332-12.654zm-39.187 61.24c-9.342 9.342-24.503 9.342-33.845 0-9.342-9.342-9.342-24.504 0-33.846 9.342-9.342 24.503-9.342 33.845 0 9.342 9.342 9.342 24.504 0 33.846zm244.997-220.647c-20.56 20.56-53.889 20.56-74.449 0-20.56-20.56-20.56-53.888 0-74.448 20.56-20.56 53.889-20.56 74.449 0 20.56 20.56 20.56 53.888 0 74.448zm42.651-91.371c-7.485 7.485-19.602 7.485-27.068 0-7.485-7.485-7.485-19.603 0-27.069 7.485-7.485 19.602-7.485 27.068 0 7.466 7.466 7.466 19.603 0 27.069z" fill="#559AAF"/></svg>